<?xml version="1.0" encoding="UTF-8" standalone="no"?>
<svg
   xmlns:dc="http://purl.org/dc/elements/1.1/"
   xmlns:cc="http://creativecommons.org/ns#"
   xmlns:rdf="http://www.w3.org/1999/02/22-rdf-syntax-ns#"
   xmlns:svg="http://www.w3.org/2000/svg"
   xmlns="http://www.w3.org/2000/svg"
   xmlns:sodipodi="http://sodipodi.sourceforge.net/DTD/sodipodi-0.dtd"
   xmlns:inkscape="http://www.inkscape.org/namespaces/inkscape"
   viewBox="0 0 24 24"
   version="1.1"
   id="svg12"
   sodipodi:docname="globe.svg"
   inkscape:version="1.0 (4035a4fb49, 2020-05-01)">
  <metadata
     id="metadata18">
    <rdf:RDF>
      <cc:Work
         rdf:about="">
        <dc:format>image/svg+xml</dc:format>
        <dc:type
           rdf:resource="http://purl.org/dc/dcmitype/StillImage" />
        <dc:title />
      </cc:Work>
    </rdf:RDF>
  </metadata>
  <defs
     id="defs16" />
  <sodipodi:namedview
     inkscape:document-rotation="0"
     pagecolor="#ffffff"
     bordercolor="#666666"
     borderopacity="1"
     objecttolerance="10"
     gridtolerance="10"
     guidetolerance="10"
     inkscape:pageopacity="0"
     inkscape:pageshadow="2"
     inkscape:window-width="1680"
     inkscape:window-height="997"
     id="namedview14"
     showgrid="false"
     inkscape:zoom="30.625"
     inkscape:cx="12"
     inkscape:cy="12"
     inkscape:window-x="-8"
     inkscape:window-y="-8"
     inkscape:window-maximized="1"
     inkscape:current-layer="svg12" />
  <g
     data-name="Layer 2"
     id="g10"
     style="fill:#707070;fill-opacity:1">
    <g
       data-name="globe-3"
       id="g8"
       style="fill:#707070;fill-opacity:1">
      <rect
         width="24"
         height="24"
         opacity="0"
         id="rect2"
         style="fill:#707070;fill-opacity:1" />
      <rect
         width="24"
         height="24"
         opacity="0"
         id="rect4"
         style="fill:#707070;fill-opacity:1" />
      <path
         d="M12 2a10 10 0 1 0 10 10A10 10 0 0 0 12 2zM5 15.8a8.42 8.42 0 0 0 2 .27 5 5 0 0 0 3.14-1c1.71-1.34 1.71-3.06 1.71-4.44a4.76 4.76 0 0 1 .37-2.34 2.86 2.86 0 0 1 1.12-.91 9.75 9.75 0 0 0 .92-.61 4.55 4.55 0 0 0 1.4-1.87A8 8 0 0 1 19 8.12c-1.43.2-3.46.67-3.86 2.53A7 7 0 0 0 15 12a2.93 2.93 0 0 1-.29 1.47l-.1.17c-.65 1.08-1.38 2.31-.39 4 .12.21.25.41.38.61a2.29 2.29 0 0 1 .52 1.08A7.89 7.89 0 0 1 12 20a8 8 0 0 1-7-4.2z"
         id="path6"
         style="fill:#707070;fill-opacity:1" />
    </g>
  </g>
</svg>
