<?xml version="1.0" encoding="UTF-8" standalone="no"?>
<svg
   xmlns:dc="http://purl.org/dc/elements/1.1/"
   xmlns:cc="http://creativecommons.org/ns#"
   xmlns:rdf="http://www.w3.org/1999/02/22-rdf-syntax-ns#"
   xmlns:svg="http://www.w3.org/2000/svg"
   xmlns="http://www.w3.org/2000/svg"
   xmlns:sodipodi="http://sodipodi.sourceforge.net/DTD/sodipodi-0.dtd"
   xmlns:inkscape="http://www.inkscape.org/namespaces/inkscape"
   inkscape:version="1.0 (4035a4fb49, 2020-05-01)"
   sodipodi:docname="undo-outlin.svg"
   id="svg10"
   version="1.1"
   viewBox="0 0 24 24">
  <metadata
     id="metadata16">
    <rdf:RDF>
      <cc:Work
         rdf:about="">
        <dc:format>image/svg+xml</dc:format>
        <dc:type
           rdf:resource="http://purl.org/dc/dcmitype/StillImage" />
      </cc:Work>
    </rdf:RDF>
  </metadata>
  <defs
     id="defs14" />
  <sodipodi:namedview
     inkscape:current-layer="g8"
     inkscape:window-maximized="1"
     inkscape:window-y="-8"
     inkscape:window-x="-8"
     inkscape:cy="12"
     inkscape:cx="12"
     inkscape:zoom="30.625"
     showgrid="false"
     id="namedview12"
     inkscape:window-height="997"
     inkscape:window-width="1680"
     inkscape:pageshadow="2"
     inkscape:pageopacity="0"
     guidetolerance="10"
     gridtolerance="10"
     objecttolerance="10"
     borderopacity="1"
     bordercolor="#666666"
     pagecolor="#ffffff" />
  <g
     id="g8"
     data-name="Layer 2">
    <g
       style="fill:#707070;fill-opacity:1"
       id="g6"
       data-name="undo">
      <rect
         style="fill:#707070;fill-opacity:1"
         id="rect2"
         opacity="0"
         transform="rotate(-90 12 12)"
         height="24"
         width="24" />
      <path
         style="fill:#707070;fill-opacity:1"
         id="path4"
         d="M20.22 21a1 1 0 0 1-1-.76 8.91 8.91 0 0 0-7.8-6.69v1.12a1.78 1.78 0 0 1-1.09 1.64A2 2 0 0 1 8.18 16l-5.06-4.41a1.76 1.76 0 0 1 0-2.68l5.06-4.42a2 2 0 0 1 2.18-.3 1.78 1.78 0 0 1 1.09 1.64V7A10.89 10.89 0 0 1 21.5 17.75a10.29 10.29 0 0 1-.31 2.49 1 1 0 0 1-1 .76z" />
    </g>
  </g>
</svg>
